<svg xmlns="http://www.w3.org/2000/svg" xmlns:xlink="http://www.w3.org/1999/xlink" version="1.1" x="0" y="0" viewBox="0 0 201.3 437.3" enable-background="new 0 0 201.3 437.3" xml:space="preserve">
  <g id="ears">
    <path fill="none" stroke="#000000" stroke-width="0.5" stroke-miterlimit="10" d="M45.5 92.3c0 0-43-23.2-29.3-89.3 0 0 51.7 22 42.3 86C62.3 26.7 18.2 8 18.2 8c-10 61.7 27.2 83.2 27.2 83.2"/>
    <path fill="none" stroke="#000000" stroke-width="0.5" stroke-miterlimit="10" d="M49.5 72.3c8.5-36-25.3-51.5-25.3-51.5 -9 39.7 17.5 53.8 17.5 53.8C19 59.2 26.7 26.1 26.7 26.1c25.7 13.7 23 45.4 23 45.4"/>
    <path fill="none" stroke="#000000" stroke-width="0.5" stroke-miterlimit="10" d="M156.6 92.3c0 0 43-23.2 29.3-89.3 0 0-51.7 22-42.3 86 -3.8-62.3 40.3-81 40.3-81 10 61.7-27.2 83.2-27.2 83.2"/>
    <path fill="none" stroke="#000000" stroke-width="0.5" stroke-miterlimit="10" d="M152.6 72.3c-8.5-36 25.3-51.5 25.3-51.5 9 39.7-17.5 53.8-17.5 53.8 22.7-15.5 14.9-48.6 14.9-48.6 -25.7 13.7-23 45.4-23 45.4"/>
  </g>
  <g id="nostrils">
    <path fill="none" stroke="#000000" stroke-width="0.5" stroke-miterlimit="10" d="M67.2 383.7c3.5 25.5 12.5 19.2 12.5 19.2 4.7-4.3-1.1-15.6-6.1-20.1 -3.6-3.2-6.4-0.5-6.4-0.5"/>
    <path fill="none" stroke="#000000" stroke-width="0.5" stroke-miterlimit="10" d="M135.5 383.7c-3.5 25.5-12.5 19.2-12.5 19.2 -4.7-4.3 1.1-15.6 6.1-20.1 3.6-3.2 6.4-0.5 6.4-0.5"/>
  </g>
  <g id="nose">
    <path fill="none" stroke="#000000" stroke-width="0.5" stroke-miterlimit="10" d="M81 321c-23 11.7-18.7 38-18.7 38 0.2 7.5-3.3 11-3.3 11 -15.8 23-1 36.3-1 36.3 20.6 22.6 20.6 22.6 20.6 22.6 4.5 6.5 22.4 5.4 22.4 5.4 19.2 1.3 22.4-5.3 22.4-5.3 17.7-19 19-21.1 19-21.1 18.2-15.6 0-40 0-40 -3-3.2-2.3-11-2.3-11 0.1-31.8-19.3-37-19.3-37 -7 31.3-19.3 31-19.3 31 -12.5-1-19.9-28.6-19.9-28.6"/>
  </g>
  <g id="eyes">
    <path fill="none" stroke="#000000" stroke-width="0.5" stroke-miterlimit="10" d="M47.7 187.7c-7-30.1-31.4-28.8-31.4-28.8"/>
    <path fill="none" stroke="#000000" stroke-width="0.5" stroke-miterlimit="10" d="M25.5 161.3c-6.8 23.8 21.3 22.8 21.3 22.8 -18.6-22.7-18.6-22.7-18.6-22.7"/>
    <path fill="none" stroke="#000000" stroke-width="0.5" stroke-miterlimit="10" d="M155.3 187.7c7-30.1 31.4-28.8 31.4-28.8"/>
    <path fill="none" stroke="#000000" stroke-width="0.5" stroke-miterlimit="10" d="M177.6 161.3c6.8 23.8-21.3 22.8-21.3 22.8 18.6-22.7 18.6-22.7 18.6-22.7"/>
  </g>
  <g id="stripes">
    <path fill="none" stroke="#000000" stroke-width="0.5" stroke-miterlimit="10" d="M80.8 85.7C42 106.3 49 129.8 49 129.8c3.8 13.5 4.1 36.6 4.1 36.6S57 109 80.8 85.7"/>
    <path fill="none" stroke="#000000" stroke-width="0.5" stroke-miterlimit="10" d="M95.1 84.4c-4.3 11-15 23.2-15 23.2 -10.8 12.5-10.8 25-10.8 25l-2.8 29.8c20.8-44.4 24.2-61.8 24.2-61.8s3.2-14.5 4-15.9"/>
    <path fill="none" stroke="#000000" stroke-width="0.5" stroke-miterlimit="10" d="M4.7 199.5c3 11.5 19.8 31.3 24.5 35.8s1.5-8.2 1.5-8.2c3.3 0.8 8.7 14.2 8.7 14.2 19 49.5 14.3 41.3 19 49.5 2.7 2.7 2 14.5 2 14.5 -6.8-9-8-16.2-8-16.2 -7.7-29.3-26.5-40-26.5-40C0.8 234.2 4.3 201 4.3 201"/>
    <path fill="none" stroke="#000000" stroke-width="0.5" stroke-miterlimit="10" d="M28.3 196c-1.9 17.6 8.1 26.8 8.1 26.8s13.5 15.1 17.6 34c5.2 19.9 8.1 30.4 8.1 30.4L58.7 254c-4.8-29.9-12.5-33.5-12.5-33.5 -11-7.8-17.5-23.1-17.5-23.1"/>
    <path fill="none" stroke="#000000" stroke-width="0.5" stroke-miterlimit="10" d="M23.1 254.3c4.5 16.2 28.6 46.2 28.6 46.2 -23.6-0.8-28.6-44.6-28.6-44.6"/>
    <path fill="none" stroke="#000000" stroke-width="0.5" stroke-miterlimit="10" d="M25.5 277.4c10.7 31.6 23.9 41.5 23.9 41.5 -16.5 6.5-24-40.2-24-40.2"/>
    <path fill="none" stroke="#000000" stroke-width="0.5" stroke-miterlimit="10" d="M90.1 121.4c3.2 27.6-8.6 46.9-8.6 46.9 -6.3 12.8-21.9 23.2-10 51 14.6 41.4 4 97.1 4 97.1 -0.3-61.3-15.2-80-15.2-80C40.1 196 59.6 180 59.6 180s18.5-17.6 30.2-57.1"/>
    <path fill="none" stroke="#000000" stroke-width="0.5" stroke-miterlimit="10" d="M99.6 106.7c-12 84.8-5.5 101.3-5.5 101.3 13 54-5 109.5-5 109.5 6-67.2-1.5-85.5-1.5-85.5 -9.8-37.2 11.8-121.5 11.8-121.5"/>
    <path fill="none" stroke="#000000" stroke-width="0.5" stroke-miterlimit="10" d="M121.9 85.7c38.9 20.6 31.9 44.1 31.9 44.1 -3.8 13.5-4.1 36.6-4.1 36.6S145.8 109 121.9 85.7"/>
    <path fill="none" stroke="#000000" stroke-width="0.5" stroke-miterlimit="10" d="M107.7 84.4c4.3 11 15 23.2 15 23.2 10.7 12.5 10.7 25 10.7 25l2.8 29.8c-20.8-44.4-24.2-61.8-24.2-61.8s-3.2-14.5-4-15.9"/>
    <path fill="none" stroke="#000000" stroke-width="0.5" stroke-miterlimit="10" d="M198.1 199.5c-3 11.5-19.8 31.3-24.5 35.8s-1.5-8.2-1.5-8.2c-3.3 0.8-8.7 14.2-8.7 14.2 -19 49.5-14.3 41.3-19 49.5 -2.7 2.7-2 14.5-2 14.5 6.8-9 8-16.2 8-16.2 7.7-29.3 26.5-40 26.5-40 25-15 21.5-48.2 21.5-48.2"/>
    <path fill="none" stroke="#000000" stroke-width="0.5" stroke-miterlimit="10" d="M174.4 196c1.9 17.6-8.1 26.8-8.1 26.8s-13.5 15.1-17.6 34c-5.2 19.9-8.1 30.4-8.1 30.4L144 254c4.8-29.9 12.5-33.5 12.5-33.5 11-7.8 17.5-23.1 17.5-23.1"/>
    <path fill="none" stroke="#000000" stroke-width="0.5" stroke-miterlimit="10" d="M179.7 254.3c-4.5 16.2-28.6 46.2-28.6 46.2 23.6-0.8 28.6-44.6 28.6-44.6"/>
    <path fill="none" stroke="#000000" stroke-width="0.5" stroke-miterlimit="10" d="M177.3 277.4c-10.8 31.6-23.9 41.5-23.9 41.5 16.5 6.5 24-40.2 24-40.2"/>
    <path fill="none" stroke="#000000" stroke-width="0.5" stroke-miterlimit="10" d="M112.7 121.4c-3.2 27.6 8.6 46.9 8.6 46.9 6.3 12.8 21.9 23.2 10 51 -14.6 41.4-4 97.1-4 97.1 0.3-61.3 15.2-80 15.2-80 20.1-40.4 0.6-56.4 0.6-56.4s-18.5-17.6-30.2-57.1"/>
    <path fill="none" stroke="#000000" stroke-width="0.5" stroke-miterlimit="10" d="M103.2 106.7c12 84.8 5.5 101.3 5.5 101.3 -13 54 5 109.5 5 109.5 -6-67.2 1.5-85.5 1.5-85.5 9.8-37.2-11.8-121.5-11.8-121.5"/>
  </g>
</svg>
